<svg width="15" height="21" viewBox="0 0 15 21" fill="none" xmlns="http://www.w3.org/2000/svg">
<path d="M7.50016 9.97908C6.80949 9.97908 6.14711 9.70472 5.65874 9.21634C5.17036 8.72797 4.896 8.06559 4.896 7.37492C4.896 6.68425 5.17036 6.02187 5.65874 5.53349C6.14711 5.04512 6.80949 4.77075 7.50016 4.77075C8.19083 4.77075 8.85321 5.04512 9.34159 5.53349C9.82996 6.02187 10.1043 6.68425 10.1043 7.37492C10.1043 7.7169 10.037 8.05554 9.9061 8.37149C9.77523 8.68744 9.58341 8.97452 9.34159 9.21634C9.09977 9.45816 8.81269 9.64998 8.49673 9.78085C8.18078 9.91173 7.84215 9.97908 7.50016 9.97908ZM7.50016 0.083252C5.56629 0.083252 3.71163 0.851479 2.34418 2.21893C0.976723 3.58638 0.208496 5.44105 0.208496 7.37492C0.208496 12.8437 7.50016 20.9166 7.50016 20.9166C7.50016 20.9166 14.7918 12.8437 14.7918 7.37492C14.7918 5.44105 14.0236 3.58638 12.6561 2.21893C11.2887 0.851479 9.43403 0.083252 7.50016 0.083252Z" fill="white"/>
</svg>
